<svg version="1.1" id="Layer_1" xmlns="http://www.w3.org/2000/svg" xmlns:xlink="http://www.w3.org/1999/xlink" x="0px" y="0px"
	 width="100%" viewBox="0 0 512 512" enable-background="new 0 0 512 512" xml:space="preserve">
<path fill="#FFFFFF" opacity="1.000000" stroke="none" 
	d="
M267.000000,1.000003 
	C348.955750,1.000000 430.911499,1.000000 512.933594,1.000000 
	C512.933594,171.666656 512.933594,342.333313 512.933594,513.000000 
	C495.585358,513.000000 478.261322,513.000000 460.469727,512.531372 
	C460.002167,418.154846 460.002167,324.247009 460.002167,229.872482 
	C453.972321,229.872482 448.505951,229.872482 443.024597,229.423523 
	C443.014832,225.364777 443.020081,221.754974 443.489746,218.083099 
	C449.201965,218.020996 454.449768,218.020996 459.686890,218.020996 
	C459.686890,211.359100 459.686890,205.317368 459.686890,198.855896 
	C453.925903,198.855896 448.475800,198.855896 443.015564,198.405731 
	C443.019409,194.342377 443.033386,190.729187 443.510162,187.066681 
	C449.232849,187.017380 454.492706,187.017380 459.654358,187.017380 
	C459.654358,142.304062 459.654358,98.260788 459.654358,53.738411 
	C421.595062,53.738411 383.880615,53.738411 345.850647,53.738411 
	C345.850647,47.649822 345.850647,42.038132 345.850647,35.804272 
	C306.405640,35.804272 267.277588,35.804272 227.100388,35.804272 
	C228.849854,33.859158 229.850159,32.820900 230.768539,31.714661 
	C242.261765,17.870621 263.533203,14.389873 278.715729,27.030569 
	C280.147552,28.222687 282.844360,29.127529 284.475372,28.621994 
	C289.799622,26.971708 294.902283,24.606411 301.031586,22.136856 
	C296.354614,17.937376 292.778320,13.577203 288.214722,10.900099 
	C281.513397,6.968959 274.106354,4.240734 267.000000,1.000003 
z"/>
<path fill="#FFFFFF" opacity="1.000000" stroke="none" 
	d="
M55.000000,513.000000 
	C37.009689,513.000000 19.019379,513.000000 1.021801,513.000000 
	C1.014534,342.434906 1.014534,171.869781 1.014534,1.000000 
	C83.020645,1.000000 165.041656,1.000000 247.371490,1.363858 
	C227.339890,5.146769 214.298965,17.421270 206.410126,36.309849 
	C193.578995,36.309849 180.841553,36.309849 167.798630,36.309849 
	C167.798630,42.402218 167.798630,48.012974 167.798630,54.105251 
	C129.753418,54.105251 92.030312,54.105251 54.748772,54.105251 
	C54.748772,161.263062 54.748772,267.925232 54.748772,375.008270 
	C61.282871,375.008270 67.076233,375.008270 72.922287,375.466339 
	C72.946762,379.607330 72.918556,383.290222 72.431900,386.984497 
	C66.411209,386.995880 60.848969,386.995880 55.308125,386.995880 
	C55.308125,393.650238 55.308125,399.679413 55.308125,406.058899 
	C61.381325,406.058899 67.149780,406.058899 72.946548,406.513794 
	C72.964195,410.616699 72.953529,414.264740 72.479492,417.949097 
	C66.424431,417.985413 60.832745,417.985413 55.000000,417.985413 
	C55.000000,450.100922 55.000000,481.550476 55.000000,513.000000 
z"/>
<path fill="#5B3392" opacity="1.000000" stroke="none" 
	d="
M72.869598,375.008270 
	C67.076233,375.008270 61.282871,375.008270 54.748772,375.008270 
	C54.748772,267.925232 54.748772,161.263062 54.748772,54.105251 
	C92.030312,54.105251 129.753418,54.105251 167.798630,54.105251 
	C167.798630,48.012974 167.798630,42.402218 167.798630,36.309849 
	C180.841553,36.309849 193.578995,36.309849 206.410126,36.309849 
	C214.298965,17.421270 227.339890,5.146769 247.840149,1.363858 
	C254.021149,1.000000 260.042297,1.000000 266.531738,1.000003 
	C274.106354,4.240734 281.513397,6.968959 288.214722,10.900099 
	C292.778320,13.577203 296.354614,17.937376 301.031586,22.136856 
	C294.902283,24.606411 289.799622,26.971708 284.475372,28.621994 
	C282.844360,29.127529 280.147552,28.222687 278.715729,27.030569 
	C263.533203,14.389873 242.261765,17.870621 230.768539,31.714661 
	C229.850159,32.820900 228.849854,33.859158 227.100388,35.804272 
	C267.277588,35.804272 306.405640,35.804272 345.850647,35.804272 
	C345.850647,42.038132 345.850647,47.649822 345.850647,53.738411 
	C383.880615,53.738411 421.595062,53.738411 459.654358,53.738411 
	C459.654358,98.260788 459.654358,142.304062 459.654358,187.017380 
	C454.492706,187.017380 449.232849,187.017380 443.203094,186.769974 
	C442.327698,184.703522 442.130066,182.884460 442.130341,181.065430 
	C442.135803,146.753662 442.164703,112.441887 442.188416,78.130112 
	C442.189758,76.208336 442.188599,74.286552 442.188599,72.232201 
	C409.520142,72.232201 377.625580,72.232201 345.430023,72.232201 
	C345.199310,77.282257 344.981232,82.056190 344.362000,86.819550 
	C342.312866,87.558563 340.664917,88.308144 338.549438,89.111206 
	C296.021790,89.174652 253.961685,89.198631 211.901566,89.185883 
	C199.603027,89.182159 187.304504,89.073891 174.967834,88.612846 
	C173.059937,87.728035 171.190201,87.243912 169.198944,86.321953 
	C169.077454,81.312637 169.077454,76.741165 169.077454,72.303337 
	C136.089584,72.303337 104.186150,72.303337 71.904976,72.303337 
	C71.904976,74.526314 71.897339,76.335533 71.906082,78.144669 
	C72.188721,136.614563 72.531418,195.084259 72.736771,253.554413 
	C72.878960,294.038666 72.832031,334.523621 72.869598,375.008270 
M227.500000,54.045486 
	C213.895737,54.045486 200.291458,54.045486 186.509216,54.045486 
	C186.509216,60.242310 186.509216,65.802010 186.509216,71.444977 
	C233.703766,71.444977 280.562836,71.444977 327.363342,71.444977 
	C327.363342,65.452911 327.363342,59.889305 327.363342,54.045532 
	C294.132446,54.045532 261.316223,54.045532 227.500000,54.045486 
z"/>
<path fill="#5C3492" opacity="1.000000" stroke="none" 
	d="
M55.468658,513.000000 
	C55.000000,481.550476 55.000000,450.100922 55.000000,417.985413 
	C60.832745,417.985413 66.424431,417.985413 72.537476,418.420166 
	C73.058830,444.109192 73.058830,469.363495 73.058830,494.797668 
	C196.811462,494.797668 319.158234,494.797668 441.950348,494.797668 
	C441.950348,492.275696 441.949432,490.140594 441.950531,488.005463 
	C441.993805,404.021393 442.030365,320.037323 442.120544,236.053314 
	C442.122772,233.992706 442.719879,231.932739 443.039551,229.872482 
	C448.505951,229.872482 453.972321,229.872482 460.002167,229.872482 
	C460.002167,324.247009 460.002167,418.154846 460.001099,512.531372 
	C325.312439,513.000000 190.624878,513.000000 55.468658,513.000000 
z"/>
<path fill="#EE746C" opacity="1.000000" stroke="none" 
	d="
M443.024597,229.423523 
	C442.719879,231.932739 442.122772,233.992706 442.120544,236.053314 
	C442.030365,320.037323 441.993805,404.021393 441.950531,488.005463 
	C441.949432,490.140594 441.950348,492.275696 441.950348,494.797668 
	C319.158234,494.797668 196.811462,494.797668 73.058830,494.797668 
	C73.058830,469.363495 73.058830,444.109192 73.000839,418.383850 
	C72.953529,414.264740 72.964195,410.616699 73.001541,406.044922 
	C72.982262,399.071838 72.936302,393.022491 72.890343,386.973145 
	C72.918556,383.290222 72.946762,379.607330 72.922287,375.466339 
	C72.832031,334.523621 72.878960,294.038666 72.736771,253.554413 
	C72.531418,195.084259 72.188721,136.614563 71.906082,78.144669 
	C71.897339,76.335533 71.904976,74.526314 71.904976,72.303337 
	C104.186150,72.303337 136.089584,72.303337 169.077454,72.303337 
	C169.077454,76.741165 169.077454,81.312637 168.708099,86.396820 
	C142.515884,86.936737 116.691879,87.096382 90.871140,86.875267 
	C85.930595,86.832954 84.865326,88.381767 84.894547,93.069756 
	C85.366722,168.833969 85.738136,244.599075 85.963074,320.364502 
	C86.115913,371.844788 86.061340,423.325989 85.922104,474.806305 
	C85.909172,479.587036 87.287590,481.083008 92.140556,481.077728 
	C202.599030,480.957764 313.057709,480.959259 423.516174,481.081268 
	C427.919067,481.086151 429.100616,479.937592 429.096649,475.514313 
	C428.982635,347.895599 428.984833,220.276703 429.121643,92.658005 
	C429.126678,87.951210 427.721619,86.862289 423.226166,86.888039 
	C397.072784,87.037865 370.917694,86.882408 344.763153,86.830124 
	C344.981232,82.056190 345.199310,77.282257 345.430023,72.232201 
	C377.625580,72.232201 409.520142,72.232201 442.188599,72.232201 
	C442.188599,74.286552 442.189758,76.208336 442.188416,78.130112 
	C442.164703,112.441887 442.135803,146.753662 442.130341,181.065430 
	C442.130066,182.884460 442.327698,184.703522 442.740265,186.819275 
	C443.033386,190.729187 443.019409,194.342377 442.685699,198.686050 
	C442.585754,205.659409 442.805542,211.902298 443.025330,218.145187 
	C443.020081,221.754974 443.014832,225.364777 443.024597,229.423523 
z"/>
<path fill="#5B3392" opacity="1.000000" stroke="none" 
	d="
M443.489746,218.083099 
	C442.805542,211.902298 442.585754,205.659409 442.695831,199.136200 
	C448.475800,198.855896 453.925903,198.855896 459.686890,198.855896 
	C459.686890,205.317368 459.686890,211.359100 459.686890,218.020996 
	C454.449768,218.020996 449.201965,218.020996 443.489746,218.083099 
z"/>
<path fill="#5A3392" opacity="1.000000" stroke="none" 
	d="
M72.431900,386.984497 
	C72.936302,393.022491 72.982262,399.071838 72.973236,405.590027 
	C67.149780,406.058899 61.381325,406.058899 55.308125,406.058899 
	C55.308125,399.679413 55.308125,393.650238 55.308125,386.995880 
	C60.848969,386.995880 66.411209,386.995880 72.431900,386.984497 
z"/>
<path fill="#FA9762" opacity="1.000000" stroke="none" 
	d="
M344.362000,86.819550 
	C370.917694,86.882408 397.072784,87.037865 423.226166,86.888039 
	C427.721619,86.862289 429.126678,87.951210 429.121643,92.658005 
	C428.984833,220.276703 428.982635,347.895599 429.096649,475.514313 
	C429.100616,479.937592 427.919067,481.086151 423.516174,481.081268 
	C313.057709,480.959259 202.599030,480.957764 92.140556,481.077728 
	C87.287590,481.083008 85.909172,479.587036 85.922104,474.806305 
	C86.061340,423.325989 86.115913,371.844788 85.963074,320.364502 
	C85.738136,244.599075 85.366722,168.833969 84.894547,93.069756 
	C84.865326,88.381767 85.930595,86.832954 90.871140,86.875267 
	C116.691879,87.096382 142.515884,86.936737 168.829590,86.834656 
	C171.190201,87.243912 173.059937,87.728035 174.958160,89.077194 
	C174.992294,91.937805 175.001862,93.933380 175.002975,95.928955 
	C175.006927,102.992645 175.005829,102.994972 181.858994,102.995087 
	C225.429703,102.995842 269.000397,102.995544 312.571106,102.995422 
	C320.054626,102.995399 327.540558,102.884499 335.020508,103.047676 
	C338.056122,103.113899 339.220245,102.090012 339.040955,99.032860 
	C338.846558,95.718742 339.009705,92.383659 339.016937,89.057724 
	C340.664917,88.308144 342.312866,87.558563 344.362000,86.819550 
M278.500000,230.801758 
	C218.458450,230.801758 158.416901,230.801758 98.486023,230.801758 
	C98.486023,307.734528 98.486023,383.763916 98.486023,459.719177 
	C204.452957,459.719177 310.002411,459.719177 415.657928,459.719177 
	C415.657928,383.349915 415.657928,307.308929 415.657928,230.801498 
	C370.057953,230.801498 324.778992,230.801498 278.500000,230.801758 
M326.594910,186.886459 
	C331.516510,189.303696 336.348114,191.931610 341.383484,194.082474 
	C347.104187,196.526108 352.990295,193.244278 353.706146,187.278839 
	C354.248779,182.756699 351.783966,179.786545 347.845123,177.819672 
	C342.001495,174.901642 336.201569,171.896088 329.768921,168.614502 
	C336.401031,165.315063 342.194061,162.423920 347.995667,159.549988 
	C351.941742,157.595230 354.036499,154.533218 353.975983,150.029572 
	C353.908966,145.039764 354.037445,140.046906 353.941956,135.058014 
	C353.812012,128.269043 350.532928,124.934845 343.802094,124.878914 
	C333.322327,124.791817 322.841309,124.836334 312.360870,124.857483 
	C304.077911,124.874199 301.089844,127.917877 301.076019,136.405502 
	C301.050262,152.209351 301.058350,168.013306 301.084412,183.817154 
	C301.087128,185.471191 301.113403,187.166275 301.459930,188.770798 
	C302.433197,193.277252 305.527893,195.685089 309.950012,195.792282 
	C314.235809,195.896164 317.127838,193.494507 318.277985,189.288605 
	C318.747925,187.570129 319.000763,185.792282 319.458130,183.514816 
	C321.778534,184.600632 323.848999,185.569504 326.594910,186.886459 
M288.786530,144.867020 
	C278.530823,127.455521 262.611755,120.937546 245.001770,126.939606 
	C227.522675,132.897049 217.701111,152.825394 223.463470,170.641556 
	C229.373367,188.913834 248.807693,199.215759 266.734833,193.914795 
	C285.124634,188.477051 298.503967,167.459579 288.786530,144.867020 
M409.657776,178.138382 
	C400.218323,178.138382 390.778870,178.138382 381.103943,178.138382 
	C381.103943,174.601303 381.103943,172.040176 381.103943,169.229553 
	C388.133118,168.525177 397.545502,170.557800 397.659790,160.151352 
	C397.778748,149.318680 387.946594,151.696793 381.139282,150.733795 
	C381.139282,147.822357 381.139282,145.256653 381.139282,142.157150 
	C389.757935,142.157150 398.047546,142.228973 406.335236,142.134293 
	C412.901825,142.059311 416.265472,139.022049 416.211456,133.508316 
	C416.157532,128.004349 412.689056,124.906845 406.278748,124.871300 
	C395.287506,124.810341 384.295532,124.816818 373.304199,124.866760 
	C366.165009,124.899200 362.999115,128.052155 362.975342,135.251251 
	C362.920868,151.738419 362.922821,168.225983 362.974609,184.713181 
	C362.997192,191.903091 366.141907,195.108398 373.260529,195.163467 
	C383.918396,195.245895 394.577881,195.124039 405.235596,195.213684 
	C410.057770,195.254242 413.748901,193.783264 415.203949,188.793304 
	C416.602325,183.997650 414.310303,180.829483 409.657776,178.138382 
M151.055176,136.428574 
	C152.611099,129.496262 149.208633,124.970863 142.076126,124.888924 
	C131.244629,124.764496 120.409897,124.927681 109.578102,124.816483 
	C105.325920,124.772827 101.542366,125.421371 99.359947,129.550858 
	C97.177261,133.680847 98.848579,137.199677 101.182335,140.687973 
	C108.498718,151.623886 115.736732,162.612320 122.974449,173.600616 
	C123.724258,174.738983 124.268997,176.012421 125.215996,177.804245 
	C118.843971,177.804245 113.355621,177.707962 107.872185,177.830917 
	C102.223099,177.957581 98.215752,181.674377 98.233513,186.514221 
	C98.251320,191.369293 102.249893,195.091278 107.922783,195.146851 
	C118.921303,195.254593 129.922836,195.283615 140.920761,195.150864 
	C149.681946,195.045120 153.451355,188.244553 148.900894,180.822861 
	C146.116730,176.281952 143.019272,171.933807 140.088837,167.481750 
	C134.730591,159.341232 129.391891,151.187851 123.468925,142.161911 
	C130.103607,142.161911 135.702225,142.077255 141.296844,142.189743 
	C145.474350,142.273743 148.813507,141.018906 151.055176,136.428574 
M177.939697,158.725159 
	C179.400681,146.417267 187.723740,140.752106 200.165741,143.596802 
	C205.985428,144.927383 210.712982,142.773544 211.978851,138.214813 
	C213.467773,132.852814 211.093613,128.791428 205.242462,126.691177 
	C185.276382,119.524406 164.059235,132.492157 160.463623,154.653900 
	C158.301666,167.979156 162.923752,179.389267 173.493347,187.888367 
	C183.041855,195.566360 193.916199,197.156494 205.479782,193.117386 
	C211.837555,190.896652 214.381454,186.548492 212.704544,181.435242 
	C211.122650,176.611771 206.623932,174.692795 200.408844,176.190399 
	C187.056076,179.407913 178.574783,173.156189 177.939697,158.725159 
z"/>
<path fill="#3DD9F3" opacity="1.000000" stroke="none" 
	d="
M228.000000,54.045509 
	C261.316223,54.045532 294.132446,54.045532 327.363342,54.045532 
	C327.363342,59.889305 327.363342,65.452911 327.363342,71.444977 
	C280.562836,71.444977 233.703766,71.444977 186.509216,71.444977 
	C186.509216,65.802010 186.509216,60.242310 186.509216,54.045486 
	C200.291458,54.045486 213.895737,54.045486 228.000000,54.045509 
z"/>
<path fill="#E9726D" opacity="1.000000" stroke="none" 
	d="
M338.549438,89.111206 
	C339.009705,92.383659 338.846558,95.718742 339.040955,99.032860 
	C339.220245,102.090012 338.056122,103.113899 335.020508,103.047676 
	C327.540558,102.884499 320.054626,102.995399 312.571106,102.995422 
	C269.000397,102.995544 225.429703,102.995842 181.858994,102.995087 
	C175.005829,102.994972 175.006927,102.992645 175.002975,95.928955 
	C175.001862,93.933380 174.992294,91.937805 174.996307,89.477890 
	C187.304504,89.073891 199.603027,89.182159 211.901566,89.185883 
	C253.961685,89.198631 296.021790,89.174652 338.549438,89.111206 
z"/>
<path fill="#5C3593" opacity="1.000000" stroke="none" 
	d="
M279.000000,230.801636 
	C324.778992,230.801498 370.057953,230.801498 415.657928,230.801498 
	C415.657928,307.308929 415.657928,383.349915 415.657928,459.719177 
	C310.002411,459.719177 204.452957,459.719177 98.486023,459.719177 
	C98.486023,383.763916 98.486023,307.734528 98.486023,230.801758 
	C158.416901,230.801758 218.458450,230.801758 279.000000,230.801636 
M362.987457,435.913940 
	C362.987457,437.863647 362.987457,439.813324 362.987457,441.868042 
	C374.907593,441.868042 386.394257,441.868042 397.804993,441.868042 
	C397.804993,424.248169 397.804993,407.034241 397.804993,389.787140 
	C394.342865,389.787140 391.203827,389.787140 387.307190,389.473053 
	C379.264923,389.473053 371.222656,389.473053 363.135254,389.473053 
	C363.135254,405.152557 363.135254,420.081909 362.987457,435.913940 
M126.922218,301.138611 
	C134.828568,301.138611 142.734924,301.138611 150.910156,301.138611 
	C150.910156,285.418457 150.910156,270.208008 151.075806,254.115280 
	C151.075806,252.217789 151.075806,250.320297 151.075806,248.508148 
	C138.939850,248.508148 127.571342,248.508148 116.261627,248.508148 
	C116.261627,266.218994 116.261627,283.575958 116.261627,300.963043 
	C119.729248,300.963043 122.863937,300.963043 126.922218,301.138611 
M362.984680,255.924088 
	C362.984680,270.933807 362.984680,285.943542 362.984680,300.962372 
	C371.791534,300.962372 379.896637,300.962372 388.910675,301.144592 
	C391.846588,301.144592 394.782501,301.144592 397.834656,301.144592 
	C397.834656,283.284576 397.834656,265.946747 397.834656,248.404282 
	C386.154816,248.404282 374.776733,248.404282 363.132263,248.404282 
	C363.132263,250.759460 363.132263,252.878036 362.984680,255.924088 
M151.075592,434.083649 
	C151.075592,419.371918 151.075592,404.660217 151.075592,389.788055 
	C142.440292,389.788055 134.218155,389.788055 125.138870,389.498016 
	C122.192238,389.498016 119.245613,389.498016 116.350861,389.498016 
	C116.350861,407.397003 116.350861,424.741699 116.350861,441.871887 
	C128.161957,441.871887 139.553665,441.871887 150.906998,441.871887 
	C150.906998,439.317413 150.906998,437.163208 151.075592,434.083649 
M387.080750,318.947510 
	C379.163635,318.947510 371.246490,318.947510 363.316315,318.947510 
	C363.316315,336.841919 363.316315,354.177246 363.316315,371.609741 
	C371.787842,371.609741 379.899811,371.609741 388.908905,371.792450 
	C391.848083,371.792450 394.787292,371.792450 397.776978,371.792450 
	C397.776978,353.872681 397.776978,336.517944 397.776978,319.108582 
	C394.286224,319.108582 391.146545,319.108582 387.080750,318.947510 
M126.908989,371.795807 
	C134.838577,371.795807 142.768173,371.795807 150.740509,371.795807 
	C150.740509,353.877686 150.740509,336.526764 150.740509,319.108185 
	C142.249496,319.108185 134.121445,319.108185 125.084480,318.950226 
	C122.152382,318.950226 119.220291,318.950226 116.278954,318.950226 
	C116.278954,336.832672 116.278954,354.165924 116.278954,371.610046 
	C119.743477,371.610046 122.865784,371.610046 126.908989,371.795807 
M345.184326,254.116364 
	C345.184326,252.224716 345.184326,250.333069 345.184326,248.403442 
	C333.078125,248.403442 321.734436,248.403442 310.157562,248.403442 
	C310.157562,250.775375 310.157562,252.887878 310.027832,255.929581 
	C310.027832,270.850098 310.027832,285.770599 310.027832,300.763611 
	C321.993927,300.763611 333.492981,300.763611 344.996155,300.763611 
	C344.996155,285.236298 344.996155,270.118744 345.184326,254.116364 
M310.030518,435.912964 
	C310.030518,437.866730 310.030518,439.820496 310.030518,441.867859 
	C321.980957,441.867859 333.497040,441.867859 344.979980,441.867859 
	C344.979980,439.309570 344.979980,437.156464 345.168762,434.081543 
	C345.168762,419.324249 345.168762,404.566956 345.168762,389.724548 
	C333.093201,389.724548 321.684662,389.724548 310.168701,389.724548 
	C310.168701,405.044403 310.168701,420.027618 310.030518,435.912964 
M168.909897,435.911560 
	C168.909897,437.858978 168.909897,439.806427 168.909897,441.861938 
	C210.227661,441.861938 251.108994,441.861938 291.959015,441.861938 
	C291.959015,439.302277 291.959015,437.153656 292.142151,434.082184 
	C292.142151,419.341125 292.142151,404.600067 292.142151,389.775330 
	C250.765396,389.775330 209.971390,389.775330 169.077240,389.775330 
	C169.077240,405.110870 169.077240,420.059113 168.909897,435.911560 
M168.904999,255.926392 
	C168.904999,270.857269 168.904999,285.788147 168.904999,300.784302 
	C210.261795,300.784302 251.089966,300.784302 291.974915,300.784302 
	C291.974915,285.264038 291.974915,270.132507 292.157990,254.116501 
	C292.157990,252.310760 292.157990,250.505020 292.157990,248.421173 
	C250.973404,248.421173 210.147491,248.421173 169.062775,248.421173 
	C169.062775,250.760483 169.062775,252.880493 168.904999,255.926392 
M278.493103,318.917236 
	C242.099503,318.917236 205.705902,318.917236 169.254776,318.917236 
	C169.254776,336.816040 169.254776,354.163330 169.254776,371.539581 
	C210.332550,371.539581 251.027786,371.539581 291.797638,371.539581 
	C291.797638,353.886627 291.797638,336.534729 291.797638,318.917206 
	C287.444275,318.917206 283.467407,318.917206 278.493103,318.917236 
M322.514709,371.837921 
	C329.953430,371.837921 337.392120,371.837921 344.961548,371.837921 
	C344.961548,353.936493 344.961548,336.688538 344.961548,319.315735 
	C333.202423,319.315735 321.690460,319.315735 310.318481,319.315735 
	C310.318481,336.960815 310.318481,354.205841 310.318481,371.837830 
	C314.259796,371.837830 317.891418,371.837830 322.514709,371.837921 
z"/>
<path fill="#FFFEFD" opacity="1.000000" stroke="none" 
	d="
M326.257172,186.712402 
	C323.848999,185.569504 321.778534,184.600632 319.458130,183.514816 
	C319.000763,185.792282 318.747925,187.570129 318.277985,189.288605 
	C317.127838,193.494507 314.235809,195.896164 309.950012,195.792282 
	C305.527893,195.685089 302.433197,193.277252 301.459930,188.770798 
	C301.113403,187.166275 301.087128,185.471191 301.084412,183.817154 
	C301.058350,168.013306 301.050262,152.209351 301.076019,136.405502 
	C301.089844,127.917877 304.077911,124.874199 312.360870,124.857483 
	C322.841309,124.836334 333.322327,124.791817 343.802094,124.878914 
	C350.532928,124.934845 353.812012,128.269043 353.941956,135.058014 
	C354.037445,140.046906 353.908966,145.039764 353.975983,150.029572 
	C354.036499,154.533218 351.941742,157.595230 347.995667,159.549988 
	C342.194061,162.423920 336.401031,165.315063 329.768921,168.614502 
	C336.201569,171.896088 342.001495,174.901642 347.845123,177.819672 
	C351.783966,179.786545 354.248779,182.756699 353.706146,187.278839 
	C352.990295,193.244278 347.104187,196.526108 341.383484,194.082474 
	C336.348114,191.931610 331.516510,189.303696 326.257172,186.712402 
M327.479248,142.134003 
	C324.727509,142.134003 321.975800,142.134003 319.144348,142.134003 
	C319.144348,146.451920 319.144348,150.007233 319.144348,154.191986 
	C322.998169,152.316742 326.513123,150.888275 329.720947,148.951202 
	C332.046021,147.547211 333.964020,145.469147 336.063538,143.691681 
	C333.520081,143.172531 330.976624,142.653381 327.479248,142.134003 
z"/>
<path fill="#FFFDFC" opacity="1.000000" stroke="none" 
	d="
M288.947388,145.210220 
	C298.503967,167.459579 285.124634,188.477051 266.734833,193.914795 
	C248.807693,199.215759 229.373367,188.913834 223.463470,170.641556 
	C217.701111,152.825394 227.522675,132.897049 245.001770,126.939606 
	C262.611755,120.937546 278.530823,127.455521 288.947388,145.210220 
M273.889038,154.932205 
	C270.126923,146.084915 262.875977,141.280396 255.103363,142.484741 
	C244.514755,144.125427 238.122803,152.803162 239.858261,163.181549 
	C241.484009,172.903778 250.452789,178.950897 260.524170,177.115341 
	C270.291534,175.335205 276.047699,166.218018 273.889038,154.932205 
z"/>
<path fill="#FFFEFE" opacity="1.000000" stroke="none" 
	d="
M410.051331,178.276215 
	C414.310303,180.829483 416.602325,183.997650 415.203949,188.793304 
	C413.748901,193.783264 410.057770,195.254242 405.235596,195.213684 
	C394.577881,195.124039 383.918396,195.245895 373.260529,195.163467 
	C366.141907,195.108398 362.997192,191.903091 362.974609,184.713181 
	C362.922821,168.225983 362.920868,151.738419 362.975342,135.251251 
	C362.999115,128.052155 366.165009,124.899200 373.304199,124.866760 
	C384.295532,124.816818 395.287506,124.810341 406.278748,124.871300 
	C412.689056,124.906845 416.157532,128.004349 416.211456,133.508316 
	C416.265472,139.022049 412.901825,142.059311 406.335236,142.134293 
	C398.047546,142.228973 389.757935,142.157150 381.139282,142.157150 
	C381.139282,145.256653 381.139282,147.822357 381.139282,150.733795 
	C387.946594,151.696793 397.778748,149.318680 397.659790,160.151352 
	C397.545502,170.557800 388.133118,168.525177 381.103943,169.229553 
	C381.103943,172.040176 381.103943,174.601303 381.103943,178.138382 
	C390.778870,178.138382 400.218323,178.138382 410.051331,178.276215 
z"/>
<path fill="#FFFEFE" opacity="1.000000" stroke="none" 
	d="
M150.954895,136.796341 
	C148.813507,141.018906 145.474350,142.273743 141.296844,142.189743 
	C135.702225,142.077255 130.103607,142.161911 123.468925,142.161911 
	C129.391891,151.187851 134.730591,159.341232 140.088837,167.481750 
	C143.019272,171.933807 146.116730,176.281952 148.900894,180.822861 
	C153.451355,188.244553 149.681946,195.045120 140.920761,195.150864 
	C129.922836,195.283615 118.921303,195.254593 107.922783,195.146851 
	C102.249893,195.091278 98.251320,191.369293 98.233513,186.514221 
	C98.215752,181.674377 102.223099,177.957581 107.872185,177.830917 
	C113.355621,177.707962 118.843971,177.804245 125.215996,177.804245 
	C124.268997,176.012421 123.724258,174.738983 122.974449,173.600616 
	C115.736732,162.612320 108.498718,151.623886 101.182335,140.687973 
	C98.848579,137.199677 97.177261,133.680847 99.359947,129.550858 
	C101.542366,125.421371 105.325920,124.772827 109.578102,124.816483 
	C120.409897,124.927681 131.244629,124.764496 142.076126,124.888924 
	C149.208633,124.970863 152.611099,129.496262 150.954895,136.796341 
z"/>
<path fill="#FFFEFD" opacity="1.000000" stroke="none" 
	d="
M177.913971,159.157593 
	C178.574783,173.156189 187.056076,179.407913 200.408844,176.190399 
	C206.623932,174.692795 211.122650,176.611771 212.704544,181.435242 
	C214.381454,186.548492 211.837555,190.896652 205.479782,193.117386 
	C193.916199,197.156494 183.041855,195.566360 173.493347,187.888367 
	C162.923752,179.389267 158.301666,167.979156 160.463623,154.653900 
	C164.059235,132.492157 185.276382,119.524406 205.242462,126.691177 
	C211.093613,128.791428 213.467773,132.852814 211.978851,138.214813 
	C210.712982,142.773544 205.985428,144.927383 200.165741,143.596802 
	C187.723740,140.752106 179.400681,146.417267 177.913971,159.157593 
z"/>
<path fill="#EAFDFE" opacity="1.000000" stroke="none" 
	d="
M278.991821,318.917236 
	C283.467407,318.917206 287.444275,318.917206 291.797638,318.917206 
	C291.797638,336.534729 291.797638,353.886627 291.797638,371.539581 
	C251.027786,371.539581 210.332550,371.539581 169.254776,371.539581 
	C169.254776,354.163330 169.254776,336.816040 169.254776,318.917236 
	C205.705902,318.917236 242.099503,318.917236 278.991821,318.917236 
z"/>
<path fill="#EBFEFF" opacity="1.000000" stroke="none" 
	d="
M291.974915,255.000961 
	C291.974915,270.132507 291.974915,285.264038 291.974915,300.784302 
	C251.089966,300.784302 210.261795,300.784302 168.904999,300.784302 
	C168.904999,285.788147 168.904999,270.857269 169.448242,255.463684 
	C210.652634,255.000992 251.313782,255.000977 291.974915,255.000961 
z"/>
<path fill="#EAFCFE" opacity="1.000000" stroke="none" 
	d="
M169.077240,435.007385 
	C169.077240,420.059113 169.077240,405.110870 169.077240,389.775330 
	C209.971390,389.775330 250.765396,389.775330 292.142151,389.775330 
	C292.142151,404.600067 292.142151,419.341125 291.584747,434.542053 
	C250.377304,435.003723 209.727280,435.005554 169.077240,435.007385 
z"/>
<path fill="#EAFDFE" opacity="1.000000" stroke="none" 
	d="
M322.018860,371.837891 
	C317.891418,371.837830 314.259796,371.837830 310.318481,371.837830 
	C310.318481,354.205841 310.318481,336.960815 310.318481,319.315735 
	C321.690460,319.315735 333.202423,319.315735 344.961548,319.315735 
	C344.961548,336.688538 344.961548,353.936493 344.961548,371.837921 
	C337.392120,371.837921 329.953430,371.837921 322.018860,371.837891 
z"/>
<path fill="#EAFCFE" opacity="1.000000" stroke="none" 
	d="
M310.168701,435.010864 
	C310.168701,420.027618 310.168701,405.044403 310.168701,389.724548 
	C321.684662,389.724548 333.093201,389.724548 345.168762,389.724548 
	C345.168762,404.566956 345.168762,419.324249 344.607117,434.541321 
	C332.753204,435.004364 321.460938,435.007599 310.168701,435.010864 
z"/>
<path fill="#EBFEFF" opacity="1.000000" stroke="none" 
	d="
M344.996155,255.001175 
	C344.996155,270.118744 344.996155,285.236298 344.996155,300.763611 
	C333.492981,300.763611 321.993927,300.763611 310.027832,300.763611 
	C310.027832,285.770599 310.027832,270.850098 310.550903,255.465256 
	C322.381378,255.001007 333.688782,255.001083 344.996155,255.001175 
z"/>
<path fill="#EAFDFE" opacity="1.000000" stroke="none" 
	d="
M125.993408,319.108185 
	C134.121445,319.108185 142.249496,319.108185 150.740509,319.108185 
	C150.740509,336.526764 150.740509,353.877686 150.740509,371.795807 
	C142.768173,371.795807 134.838577,371.795807 126.449097,371.260437 
	C125.990601,353.519440 125.992004,336.313812 125.993408,319.108185 
z"/>
<path fill="#EAFDFE" opacity="1.000000" stroke="none" 
	d="
M388.011780,371.609741 
	C379.899811,371.609741 371.787842,371.609741 363.316315,371.609741 
	C363.316315,354.177246 363.316315,336.841919 363.316315,318.947510 
	C371.246490,318.947510 379.163635,318.947510 387.541443,319.489380 
	C388.005341,337.224091 388.008545,354.416901 388.011780,371.609741 
z"/>
<path fill="#E9FBFD" opacity="1.000000" stroke="none" 
	d="
M125.996010,389.788055 
	C134.218155,389.788055 142.440292,389.788055 151.075592,389.788055 
	C151.075592,404.660217 151.075592,419.371918 150.528946,434.543457 
	C143.839935,435.002167 137.683441,434.746582 131.560059,435.087036 
	C127.286644,435.324615 125.783562,434.183960 125.890556,429.627747 
	C126.202263,416.354370 125.997971,403.068817 125.996010,389.788055 
z"/>
<path fill="#EBFEFF" opacity="1.000000" stroke="none" 
	d="
M388.001709,300.962372 
	C379.896637,300.962372 371.791534,300.962372 362.984680,300.962372 
	C362.984680,285.943542 362.984680,270.933807 363.518280,255.461899 
	C370.546722,255.000488 377.047791,255.171066 383.533966,254.934158 
	C387.056183,254.805511 388.107239,256.025330 388.066193,259.496002 
	C387.902771,273.316467 388.000610,287.139984 388.001709,300.962372 
z"/>
<path fill="#EBFEFF" opacity="1.000000" stroke="none" 
	d="
M150.910156,254.997559 
	C150.910156,270.208008 150.910156,285.418457 150.910156,301.138611 
	C142.734924,301.138611 134.828568,301.138611 126.461212,300.584717 
	C126.000633,286.535645 126.093246,273.039368 125.937157,259.545990 
	C125.897751,256.140045 126.829308,254.802505 130.420013,254.930969 
	C137.242126,255.175034 144.079254,254.999084 150.910156,254.997559 
z"/>
<path fill="#E9FBFD" opacity="1.000000" stroke="none" 
	d="
M363.135254,435.011230 
	C363.135254,420.081909 363.135254,405.152557 363.135254,389.473053 
	C371.222656,389.473053 379.264923,389.473053 387.665924,390.113312 
	C388.015778,404.018280 387.902405,417.284302 388.068451,430.546814 
	C388.112244,434.043854 387.008911,435.183655 383.527557,435.067261 
	C376.737091,434.840302 369.933441,435.007324 363.135254,435.011230 
z"/>
<path fill="#F9F8FB" opacity="1.000000" stroke="none" 
	d="
M292.066467,254.558731 
	C251.313782,255.000977 210.652634,255.000992 169.527130,255.000748 
	C169.062775,252.880493 169.062775,250.760483 169.062775,248.421173 
	C210.147491,248.421173 250.973404,248.421173 292.157990,248.421173 
	C292.157990,250.505020 292.157990,252.310760 292.066467,254.558731 
z"/>
<path fill="#FEFFFF" opacity="1.000000" stroke="none" 
	d="
M168.993561,435.459473 
	C209.727280,435.005554 250.377304,435.003723 291.493164,435.003479 
	C291.959015,437.153656 291.959015,439.302277 291.959015,441.861938 
	C251.108994,441.861938 210.227661,441.861938 168.909897,441.861938 
	C168.909897,439.806427 168.909897,437.858978 168.993561,435.459473 
z"/>
<path fill="#FDFDFE" opacity="1.000000" stroke="none" 
	d="
M388.456177,301.053467 
	C388.000610,287.139984 387.902771,273.316467 388.066193,259.496002 
	C388.107239,256.025330 387.056183,254.805511 383.533966,254.934158 
	C377.047791,255.171066 370.546722,255.000488 363.592072,254.998154 
	C363.132263,252.878036 363.132263,250.759460 363.132263,248.404282 
	C374.776733,248.404282 386.154816,248.404282 397.834656,248.404282 
	C397.834656,265.946747 397.834656,283.284576 397.834656,301.144592 
	C394.782501,301.144592 391.846588,301.144592 388.456177,301.053467 
z"/>
<path fill="#FDFDFE" opacity="1.000000" stroke="none" 
	d="
M150.992981,254.556427 
	C144.079254,254.999084 137.242126,255.175034 130.420013,254.930969 
	C126.829308,254.802505 125.897751,256.140045 125.937157,259.545990 
	C126.093246,273.039368 126.000633,286.535645 125.999420,300.496948 
	C122.863937,300.963043 119.729248,300.963043 116.261627,300.963043 
	C116.261627,283.575958 116.261627,266.218994 116.261627,248.508148 
	C127.571342,248.508148 138.939850,248.508148 151.075806,248.508148 
	C151.075806,250.320297 151.075806,252.217789 150.992981,254.556427 
z"/>
<path fill="#FFFFFF" opacity="1.000000" stroke="none" 
	d="
M125.567444,389.643036 
	C125.997971,403.068817 126.202263,416.354370 125.890556,429.627747 
	C125.783562,434.183960 127.286644,435.324615 131.560059,435.087036 
	C137.683441,434.746582 143.839935,435.002167 150.444641,435.006134 
	C150.906998,437.163208 150.906998,439.317413 150.906998,441.871887 
	C139.553665,441.871887 128.161957,441.871887 116.350861,441.871887 
	C116.350861,424.741699 116.350861,407.397003 116.350861,389.498016 
	C119.245613,389.498016 122.192238,389.498016 125.567444,389.643036 
z"/>
<path fill="#FFFFFF" opacity="1.000000" stroke="none" 
	d="
M363.061340,435.462585 
	C369.933441,435.007324 376.737091,434.840302 383.527557,435.067261 
	C387.008911,435.183655 388.112244,434.043854 388.068451,430.546814 
	C387.902405,417.284302 388.015778,404.018280 388.044739,390.270355 
	C391.203827,389.787140 394.342865,389.787140 397.804993,389.787140 
	C397.804993,407.034241 397.804993,424.248169 397.804993,441.868042 
	C386.394257,441.868042 374.907593,441.868042 362.987457,441.868042 
	C362.987457,439.813324 362.987457,437.863647 363.061340,435.462585 
z"/>
<path fill="#FFFFFF" opacity="1.000000" stroke="none" 
	d="
M125.538940,319.029205 
	C125.992004,336.313812 125.990601,353.519440 125.988647,371.167542 
	C122.865784,371.610046 119.743477,371.610046 116.278954,371.610046 
	C116.278954,354.165924 116.278954,336.832672 116.278954,318.950226 
	C119.220291,318.950226 122.152382,318.950226 125.538940,319.029205 
z"/>
<path fill="#FFFFFF" opacity="1.000000" stroke="none" 
	d="
M388.460327,371.701111 
	C388.008545,354.416901 388.005341,337.224091 388.004517,319.569916 
	C391.146545,319.108582 394.286224,319.108582 397.776978,319.108582 
	C397.776978,336.517944 397.776978,353.872681 397.776978,371.792450 
	C394.787292,371.792450 391.848083,371.792450 388.460327,371.701111 
z"/>
<path fill="#FEFFFF" opacity="1.000000" stroke="none" 
	d="
M310.099609,435.461914 
	C321.460938,435.007599 332.753204,435.004364 344.512695,435.002197 
	C344.979980,437.156464 344.979980,439.309570 344.979980,441.867859 
	C333.497040,441.867859 321.980957,441.867859 310.030518,441.867859 
	C310.030518,439.820496 310.030518,437.866730 310.099609,435.461914 
z"/>
<path fill="#F9F8FB" opacity="1.000000" stroke="none" 
	d="
M345.090240,254.558777 
	C333.688782,255.001083 322.381378,255.001007 310.615784,255.000656 
	C310.157562,252.887878 310.157562,250.775375 310.157562,248.403442 
	C321.734436,248.403442 333.078125,248.403442 345.184326,248.403442 
	C345.184326,250.333069 345.184326,252.224716 345.090240,254.558777 
z"/>
<path fill="#FB9E6B" opacity="1.000000" stroke="none" 
	d="
M327.956207,142.134125 
	C330.976624,142.653381 333.520081,143.172531 336.063538,143.691681 
	C333.964020,145.469147 332.046021,147.547211 329.720947,148.951202 
	C326.513123,150.888275 322.998169,152.316742 319.144348,154.191986 
	C319.144348,150.007233 319.144348,146.451920 319.144348,142.134003 
	C321.975800,142.134003 324.727509,142.134003 327.956207,142.134125 
z"/>
<path fill="#FB9863" opacity="1.000000" stroke="none" 
	d="
M273.965179,155.318893 
	C276.047699,166.218018 270.291534,175.335205 260.524170,177.115341 
	C250.452789,178.950897 241.484009,172.903778 239.858261,163.181549 
	C238.122803,152.803162 244.514755,144.125427 255.103363,142.484741 
	C262.875977,141.280396 270.126923,146.084915 273.965179,155.318893 
z"/>
</svg>